<svg width="26" height="26" viewBox="0 0 26 26" fill="none" xmlns="http://www.w3.org/2000/svg">
<path fill-rule="evenodd" clip-rule="evenodd" d="M26 13C26 5.82086 20.1791 0 13 0C5.82086 0 0 5.82086 0 13C0 19.4881 4.75325 24.8665 10.9689 25.8429V16.7587H7.66727V13H10.9689V10.1353C10.9689 6.87745 12.9104 5.07673 15.8793 5.07673C17.3016 5.07673 18.7897 5.33083 18.7897 5.33083V8.53015H17.1499C15.5357 8.53015 15.0311 9.53198 15.0311 10.5612V12.9999H18.636L18.0602 16.7586H15.0309V25.8427C21.2467 24.8683 25.9998 19.4899 25.9998 12.9999L26 13Z" fill="black"/>
<path fill-rule="evenodd" clip-rule="evenodd" d="M18.0599 16.7586L18.6359 12.9999H15.0308V10.5612C15.0308 9.53379 15.5335 8.53015 17.1496 8.53015H18.7895V5.33083C18.7895 5.33083 17.3014 5.07672 15.8791 5.07672C12.9102 5.07672 10.9687 6.87567 10.9687 10.1353V13H7.66699V16.7587H10.9687V25.8429C11.6304 25.9469 12.3087 26 12.9997 26C13.6908 26 14.369 25.9451 15.0308 25.8429V16.7587H18.0601L18.0599 16.7586Z" fill="#FEFEFE"/>
</svg>
