<svg width="26" height="26" viewBox="0 0 26 26" fill="none" xmlns="http://www.w3.org/2000/svg">
<path d="M13.0113 6.37601C12.7827 6.37601 12.5565 6.38767 12.3337 6.41049C12.1109 6.43331 11.8912 6.46713 11.6752 6.51151C11.4592 6.55591 11.2471 6.61089 11.0392 6.67578L10.429 6.89983L9.84798 7.18036L9.29975 7.51396L8.78749 7.89711L8.3148 8.32649L7.885 8.79877L7.50143 9.31045L7.16742 9.85818L6.88673 10.4385C6.80235 10.637 6.7273 10.8405 6.66233 11.0482C6.59737 11.2559 6.54239 11.468 6.4979 11.6837C6.45343 11.8995 6.41961 12.1189 6.3967 12.3416C6.37381 12.5642 6.3623 12.7901 6.3623 13.0185C6.3623 13.2469 6.37397 13.4728 6.3967 13.6954C6.41932 13.9163 6.45309 14.1359 6.4979 14.3534C6.54239 14.5699 6.59737 14.7812 6.66233 14.9889C6.7273 15.1967 6.80226 15.4001 6.88673 15.5986L7.16742 16.1789L7.50143 16.7266L7.885 17.2384L8.3148 17.7106L8.78749 18.1401L9.29975 18.5232L9.84798 18.8567L10.429 19.1373L11.0392 19.3613L11.6752 19.5257C11.8929 19.5704 12.1127 19.6042 12.3337 19.6268C12.5589 19.6497 12.785 19.6612 13.0113 19.6611C13.24 19.6611 13.4661 19.6495 13.6888 19.6268C13.9099 19.6042 14.1297 19.5704 14.3474 19.5257L14.9835 19.3613L15.5937 19.1373L16.1746 18.8567L16.7229 18.5232L17.2351 18.1401L17.7079 17.7106L18.1378 17.2384L18.5213 16.7266L18.8553 16.1789L19.1361 15.5986L19.3603 14.9889C19.4253 14.7812 19.4804 14.5691 19.5248 14.3534L19.6259 13.6954C19.6489 13.4727 19.6604 13.2468 19.6604 13.0184C19.6604 12.79 19.6489 12.5641 19.6259 12.3415C19.6034 12.1207 19.5696 11.9011 19.5248 11.6837C19.4804 11.4671 19.4253 11.2559 19.3603 11.0481L19.1361 10.4384L18.8553 9.85809L18.5213 9.31036L18.1378 8.79868L17.7079 8.3264L17.2351 7.89702L16.7229 7.51389L16.1746 7.18029L15.5937 6.89976L14.9835 6.67569L14.3474 6.51144L13.6888 6.4104C13.4637 6.38742 13.2376 6.37599 13.0113 6.37601ZM13.0113 8.66875C13.1625 8.66875 13.3117 8.67625 13.4586 8.69107L13.8917 8.75663L14.3101 8.86323L14.7108 9.00876L15.0917 9.19117L15.4498 9.40815L15.7847 9.65778L16.0934 9.93781L16.3736 10.2462L16.6235 10.5807L16.8408 10.9393L17.0232 11.32C17.078 11.4503 17.1266 11.5838 17.1689 11.7203C17.2112 11.8568 17.2468 11.9963 17.2756 12.1384C17.3043 12.2805 17.3255 12.4251 17.3411 12.572L17.3634 13.0189C17.3634 13.17 17.3559 13.319 17.3411 13.466C17.3263 13.6129 17.3045 13.7575 17.2756 13.8995C17.2466 14.0415 17.211 14.181 17.1689 14.3177L17.0232 14.718L16.8408 15.0986L16.6235 15.4572L16.3736 15.7918L16.0934 16.1001L15.7847 16.3802L15.4498 16.6298L15.0917 16.8468L14.7108 17.0292L14.3101 17.1747L13.8917 17.2813L13.4586 17.3468C13.31 17.3617 13.1606 17.3691 13.0112 17.3691C12.8618 17.3691 12.7125 17.3617 12.5638 17.3468L12.1307 17.2813C11.9885 17.2525 11.8489 17.2169 11.7122 17.1747L11.3115 17.0292L10.9306 16.8468L10.5725 16.6298L10.2376 16.3802L9.92895 16.1001L9.64867 15.7918L9.39878 15.4572L9.18155 15.0986L8.99914 14.718L8.85338 14.3177L8.74676 13.8995L8.68122 13.466C8.6663 13.3174 8.65885 13.1682 8.65888 13.0189C8.65885 12.8697 8.6663 12.7205 8.68122 12.572C8.69595 12.4251 8.71785 12.2804 8.74676 12.1384C8.77538 11.9974 8.81098 11.8579 8.85347 11.7204L8.99923 11.3201L9.18164 10.9394L9.39887 10.5808L9.64874 10.2463L9.92904 9.9379L10.2377 9.65786L10.5726 9.40824L10.9307 9.19125L11.3116 9.00883C11.4427 8.95378 11.5765 8.90521 11.7123 8.86332L12.1308 8.7567C12.273 8.72789 12.4178 8.7059 12.564 8.69116C12.7126 8.67627 12.8619 8.66874 13.0113 8.66875Z" fill="black"/>
<path d="M19.93 4.48639C19.8773 4.48639 19.8245 4.48906 19.772 4.49439C19.7194 4.4997 19.6673 4.50764 19.6154 4.5182C19.5638 4.52877 19.5125 4.54191 19.4622 4.5576C19.4116 4.57331 19.3621 4.59154 19.3134 4.61224C19.2648 4.63296 19.2173 4.65613 19.1709 4.68162C19.1245 4.70708 19.0796 4.73485 19.036 4.76484C18.9923 4.79485 18.9503 4.82704 18.91 4.86129C18.8696 4.89551 18.8309 4.93173 18.7941 4.96983C18.7574 5.00794 18.7226 5.0479 18.6897 5.08952C18.6569 5.13115 18.6262 5.1744 18.5977 5.21912C18.5691 5.26381 18.5429 5.3099 18.5189 5.35723C18.4951 5.40459 18.4734 5.45312 18.4543 5.50266C18.4352 5.55217 18.4185 5.60264 18.4043 5.65383C18.3902 5.70503 18.3786 5.7569 18.3698 5.80927C18.3608 5.86161 18.3544 5.91437 18.3507 5.96736C18.3479 6.00488 18.3467 6.04251 18.3467 6.08013C18.3467 6.13329 18.3492 6.18641 18.3546 6.23931C18.3599 6.29218 18.3678 6.34474 18.3783 6.39681C18.3887 6.44888 18.4017 6.5004 18.4173 6.55115C18.433 6.60192 18.451 6.65188 18.4716 6.70083C18.4922 6.7498 18.5151 6.7977 18.5406 6.84435C18.5659 6.89099 18.5935 6.93633 18.6233 6.9802C18.6531 7.02404 18.685 7.06635 18.719 7.10697C18.7531 7.14763 18.789 7.18656 18.827 7.22359C18.8649 7.26061 18.9044 7.29569 18.9459 7.32871C18.9873 7.36175 19.0303 7.39268 19.0747 7.42141C19.1191 7.45014 19.165 7.47661 19.2119 7.50071C19.259 7.52483 19.3072 7.54657 19.3563 7.56584C19.4056 7.5851 19.4557 7.60186 19.5066 7.61607C19.5575 7.63026 19.6089 7.64189 19.6609 7.65088C19.7129 7.65992 19.7655 7.66635 19.818 7.67013C19.8554 7.6728 19.8928 7.67412 19.9302 7.67413C19.9829 7.67413 20.0358 7.6715 20.0883 7.66621C20.1407 7.6609 20.193 7.65295 20.2447 7.64239C20.2965 7.63185 20.3476 7.61868 20.3982 7.60299C20.4485 7.58729 20.4982 7.56905 20.5467 7.54836C20.5953 7.52765 20.643 7.50452 20.6892 7.47904C20.7356 7.45357 20.7806 7.42576 20.8243 7.39575C20.8678 7.36576 20.9098 7.33361 20.9503 7.29939C20.9906 7.26514 21.0292 7.2289 21.066 7.19077C21.1029 7.15265 21.1377 7.1127 21.1704 7.07108C21.2032 7.02944 21.2339 6.9862 21.2625 6.94147C21.291 6.89677 21.3174 6.85064 21.3412 6.8033C21.3652 6.75592 21.3869 6.70738 21.406 6.65786C21.4252 6.60833 21.4418 6.55788 21.4558 6.50668C21.4699 6.45549 21.4815 6.40362 21.4905 6.35126C21.4995 6.29891 21.5059 6.24614 21.5095 6.19316C21.5122 6.15562 21.5136 6.11802 21.5136 6.08039C21.5136 6.02725 21.5109 5.97415 21.5057 5.92128C21.5004 5.86842 21.4925 5.81586 21.482 5.76378C21.4716 5.71171 21.4584 5.6602 21.4428 5.60944C21.4271 5.55867 21.4091 5.50871 21.3885 5.45976C21.3679 5.4108 21.345 5.3629 21.3197 5.31624C21.2944 5.2696 21.2668 5.22427 21.237 5.18039C21.207 5.13652 21.1751 5.09419 21.1411 5.05353C21.107 5.01289 21.0711 4.97396 21.0333 4.93693C20.9954 4.89992 20.9557 4.86483 20.9144 4.83181C20.873 4.79879 20.83 4.76788 20.7856 4.73919C20.7412 4.71046 20.6953 4.68399 20.6482 4.65988C20.6011 4.63576 20.5529 4.61402 20.5038 4.59476C20.4547 4.57549 20.4045 4.55874 20.3536 4.54453C20.3028 4.5303 20.2512 4.51865 20.1992 4.50963C20.1472 4.50062 20.0948 4.49421 20.0421 4.49047C20.0047 4.4878 19.9673 4.48639 19.93 4.48639Z" fill="black"/>
<path d="M11.7504 0.0234967C11.0272 0.0223304 10.3818 0.0253287 9.8021 0.0334915L8.24785 0.0751384C7.78739 0.0951288 7.38058 0.121198 7.01543 0.154932C6.83285 0.171757 6.6606 0.190581 6.49734 0.211322C6.34197 0.230903 6.18706 0.253704 6.03265 0.279707C5.88562 0.304696 5.7461 0.331682 5.61233 0.361001C5.47857 0.390321 5.3508 0.421972 5.22751 0.455957C5.10701 0.489188 4.98743 0.525741 4.86895 0.565572C4.75283 0.60472 4.63955 0.646201 4.52768 0.690513C4.30395 0.779138 4.08573 0.878588 3.861 0.990036C3.68808 1.07583 3.52832 1.1627 3.37657 1.25466C3.22481 1.34662 3.08103 1.44374 2.94027 1.54952C2.7953 1.65899 2.65557 1.77523 2.52156 1.89786C2.38145 2.02546 2.23836 2.16581 2.08967 2.32266C1.90285 2.51865 1.74051 2.70139 1.59641 2.88072C1.52436 2.97035 1.45689 3.05898 1.39334 3.1481C1.33049 3.23592 1.2704 3.32572 1.21317 3.41729C1.15654 3.50809 1.10289 3.60056 1.05158 3.69567C0.999476 3.79243 0.950228 3.89071 0.903904 3.99036C0.809116 4.19393 0.720658 4.41317 0.632367 4.65789C0.566867 4.83879 0.508213 5.02212 0.456533 5.20745C0.403809 5.39687 0.356915 5.59503 0.3151 5.80933C0.273287 6.02365 0.236804 6.25413 0.204735 6.509C0.170179 6.78839 0.142573 7.0686 0.121942 7.34936C0.0986198 7.65804 0.0792957 7.99772 0.0634698 8.37578L0.0259878 9.63286L0.00583054 11.1652L0 13.0174L0.0170752 15.7109L0.0703833 17.7516L0.111447 18.5486L0.162756 19.2093C0.179204 19.3873 0.199783 19.5648 0.224477 19.7419C0.246966 19.8992 0.271122 20.0368 0.297109 20.1559C0.349841 20.3981 0.412194 20.638 0.484021 20.8753C0.552794 21.1024 0.631442 21.3263 0.719741 21.5466C0.806534 21.7624 0.901488 21.9704 1.00477 22.1706C1.10806 22.3708 1.21967 22.5633 1.33962 22.7482C1.45956 22.9329 1.58783 23.1102 1.72477 23.2799C1.86154 23.4496 2.00703 23.612 2.16065 23.7667C2.31448 23.9216 2.47675 24.0689 2.64775 24.2091C2.82076 24.3508 3.00063 24.484 3.18666 24.6081C3.35932 24.7235 3.53016 24.8293 3.70225 24.9262C3.87432 25.0234 4.04791 25.1113 4.22633 25.1915C4.40474 25.2714 4.58766 25.3435 4.77874 25.4083C4.96981 25.4731 5.16889 25.5307 5.37929 25.5818C5.58969 25.6331 5.8124 25.6779 6.04814 25.7171C6.28385 25.7562 6.53582 25.7898 6.80503 25.8187C7.07423 25.8476 7.36143 25.8714 7.67003 25.8915C7.97864 25.9115 8.30848 25.9274 8.66289 25.9402C9.21039 25.9601 10.0392 25.9716 10.9949 25.9762L14.0888 25.9698L17.0186 25.9289L18.1326 25.8974L18.8583 25.8602C19.0141 25.8474 19.1665 25.8324 19.3136 25.8149C19.4608 25.7974 19.6058 25.7774 19.7471 25.7544C19.8883 25.7317 20.0265 25.7062 20.1621 25.6779C20.2962 25.6499 20.4296 25.6187 20.5622 25.5843C20.6934 25.5509 20.8229 25.513 20.9511 25.4728C21.0791 25.4327 21.206 25.3892 21.3321 25.3424C21.4588 25.2955 21.5843 25.2454 21.7087 25.1925C21.8338 25.1391 21.9588 25.0822 22.0842 25.0217C22.2769 24.9289 22.432 24.8515 22.5681 24.776C22.6963 24.7058 22.8197 24.6272 22.9376 24.5407C23.0538 24.4552 23.1694 24.3577 23.3026 24.2349C23.4359 24.1121 23.587 23.9642 23.7739 23.7772C23.9384 23.6129 24.0769 23.47 24.1964 23.3402C24.3159 23.2104 24.4167 23.0936 24.505 22.9809C24.5891 22.874 24.6675 22.7628 24.7399 22.6476C24.8105 22.5351 24.8755 22.4183 24.9415 22.2888C25.0412 22.094 25.1299 21.9135 25.2091 21.7392C25.2862 21.5715 25.3566 21.4005 25.4202 21.2272C25.4828 21.0551 25.5372 20.8802 25.5829 20.7029C25.6298 20.5205 25.6703 20.3278 25.7053 20.1166C25.7401 19.9053 25.7697 19.6755 25.7954 19.4187C25.821 19.1622 25.8429 18.8783 25.862 18.5597L25.9129 17.4895L25.9564 16.1588L25.9877 14.6761L25.9996 13.1259L25.9718 10.0811L25.9346 8.71728L25.8839 7.54635L25.8205 6.63344C25.7976 6.3794 25.7726 6.17932 25.7465 6.04405C25.7172 5.89459 25.6847 5.74583 25.6488 5.59784C25.6137 5.45387 25.5753 5.31076 25.5334 5.16865C25.4926 5.03018 25.4482 4.89278 25.4003 4.75658C25.353 4.62207 25.3028 4.49037 25.2503 4.36153C25.1979 4.23266 25.1411 4.10682 25.082 3.98362C25.0228 3.86043 24.9609 3.74023 24.8959 3.62278C24.8307 3.50535 24.763 3.39082 24.692 3.27911C24.6212 3.16742 24.5474 3.05855 24.4705 2.9526C24.3941 2.84699 24.3143 2.7438 24.2314 2.64316C24.1489 2.5431 24.0633 2.44565 23.9747 2.35097C23.8862 2.25643 23.7947 2.16471 23.7004 2.07595C23.606 1.98715 23.5088 1.90119 23.4086 1.81806C23.3079 1.73466 23.2048 1.65441 23.099 1.57742C22.9923 1.49965 22.8832 1.42516 22.7718 1.35403C22.659 1.2819 22.5441 1.21312 22.4271 1.14779C22.3083 1.08138 22.1873 1.01838 22.0649 0.958885C21.8614 0.860015 21.6733 0.772308 21.4888 0.694512C21.3071 0.617303 21.1221 0.54873 20.9341 0.489025C20.7451 0.429469 20.5483 0.378412 20.3318 0.334349C20.1151 0.290286 19.8789 0.253554 19.6117 0.222318C19.3445 0.191083 19.046 0.165846 18.7046 0.144856C18.3634 0.123866 17.9794 0.107372 17.541 0.0940453L16.0512 0.0607283L14.1657 0.0384889L11.7512 0.0236619L11.7504 0.0234967ZM13.0043 2.31424L16.4863 2.33407L17.7998 2.35938C18.1615 2.36955 18.4376 2.38146 18.5993 2.3952C18.8102 2.41295 19.0108 2.43518 19.2029 2.46185C19.3871 2.48729 19.5706 2.51892 19.7526 2.55671C19.9275 2.59336 20.0943 2.635 20.2541 2.68198C20.4137 2.72896 20.5663 2.78161 20.7126 2.83982C20.859 2.89805 20.9989 2.96209 21.1336 3.03224C21.2672 3.10184 21.3971 3.17844 21.5225 3.26171C21.6475 3.34458 21.7679 3.43389 21.8849 3.53009C22.0017 3.62629 22.1151 3.7294 22.2258 3.83968C22.3428 3.95605 22.4506 4.07457 22.5499 4.19684C22.6488 4.31837 22.7406 4.44574 22.8242 4.57825C22.9088 4.71265 22.985 4.85217 23.0526 4.99596C23.1215 5.14257 23.1835 5.29749 23.2391 5.46216C23.2949 5.62684 23.3443 5.80184 23.3882 5.98884C23.4343 6.18709 23.4727 6.387 23.5038 6.58814C23.537 6.80137 23.5655 7.02877 23.5897 7.27223C23.6137 7.51569 23.6338 7.77533 23.6502 8.05311C23.6634 8.27592 23.6749 8.56995 23.6847 8.9172L23.7091 10.1012L23.7277 13.0015L23.7065 15.899L23.6811 17.0797L23.6459 17.9383C23.6217 18.3405 23.596 18.6785 23.5653 18.9726C23.55 19.1197 23.5332 19.2559 23.5148 19.3835C23.4975 19.5041 23.4769 19.6242 23.4532 19.7437C23.4316 19.8528 23.4065 19.9611 23.3777 20.0687C23.3505 20.1711 23.3196 20.2728 23.2855 20.3733C23.251 20.4743 23.2136 20.5741 23.1732 20.6727C23.1304 20.7771 23.0852 20.8802 23.0378 20.9823C22.9955 21.0735 22.9511 21.1624 22.9042 21.2487C22.8577 21.3343 22.8083 21.418 22.7563 21.5002C22.7046 21.5816 22.6505 21.6607 22.5938 21.7373C22.5374 21.8134 22.4784 21.8877 22.4167 21.9597C22.3553 22.0316 22.2912 22.1009 22.2245 22.1681C22.1579 22.235 22.0888 22.2997 22.0171 22.3622C21.9456 22.4246 21.8712 22.4848 21.7943 22.5425C21.7175 22.6003 21.6379 22.6557 21.5558 22.7088C21.4734 22.7621 21.3888 22.813 21.3012 22.8618C21.2136 22.9103 21.1233 22.9567 21.0305 23.001C20.9359 23.0459 20.8402 23.088 20.7431 23.1272C20.6429 23.1676 20.5416 23.2052 20.4392 23.24C20.2308 23.311 20.0113 23.3733 19.78 23.4269C19.5391 23.4827 19.2959 23.5282 19.0511 23.5634C18.9568 23.5771 18.7405 23.5901 18.4307 23.602L17.25 23.6349L13.9024 23.6784L10.3986 23.6838L9.02256 23.6692L8.12906 23.6414L7.47021 23.595C7.26564 23.5778 7.07539 23.5587 6.89715 23.5368C6.7189 23.5152 6.5529 23.491 6.39672 23.4635C6.24872 23.4381 6.10162 23.4074 5.95567 23.372C5.82261 23.3397 5.69089 23.3019 5.56087 23.259C5.43551 23.2173 5.31564 23.1714 5.19904 23.121C5.08242 23.0707 4.96914 23.0154 4.85694 22.9551C4.74474 22.8948 4.63372 22.8294 4.52143 22.7579C4.43673 22.7041 4.35485 22.6496 4.27606 22.592C4.19726 22.5342 4.12112 22.4766 4.04783 22.4163C3.97453 22.356 3.90415 22.2939 3.83626 22.23C3.76882 22.1663 3.70371 22.1002 3.64103 22.0319C3.57855 21.9637 3.51883 21.8936 3.46152 21.821C3.40399 21.7481 3.34917 21.673 3.29719 21.5961C3.24442 21.5179 3.19449 21.4379 3.14751 21.3563C3.10003 21.2738 3.05489 21.1885 3.01199 21.1004C2.96837 21.0109 2.92767 20.9199 2.88997 20.8276C2.85165 20.7335 2.81533 20.6366 2.78118 20.5366C2.71288 20.3361 2.65292 20.1229 2.60077 19.8956C2.54863 19.6683 2.50414 19.4267 2.46649 19.1692C2.42885 18.9119 2.39853 18.6389 2.37437 18.3489C2.35655 18.1353 2.3424 17.8026 2.33156 17.3828L2.3089 15.8897L2.31723 12.0836L2.38279 8.44667L2.43277 7.16528L2.46108 6.74172C2.47092 6.62862 2.48108 6.54482 2.49148 6.4945C2.52581 6.329 2.56036 6.17499 2.5961 6.03082C2.62948 5.89479 2.66662 5.75973 2.70746 5.62576C2.74628 5.49932 2.78718 5.38087 2.83091 5.26867C2.87307 5.15998 2.92007 5.05323 2.97176 4.94875C3.02222 4.84713 3.07646 4.74983 3.13534 4.65513C3.19424 4.56043 3.2578 4.46856 3.32709 4.37718C3.39639 4.2858 3.47101 4.1956 3.55223 4.10414C3.63344 4.01269 3.72116 3.92032 3.81627 3.82511C3.92713 3.71362 4.04256 3.60677 4.16227 3.50484C4.27532 3.40868 4.39318 3.31835 4.51544 3.23423C4.63563 3.15092 4.75892 3.0768 4.88727 3.00866C5.01563 2.94054 5.14906 2.87897 5.28941 2.82359C5.42975 2.7682 5.57719 2.71863 5.73336 2.67366C5.89745 2.62763 6.06334 2.58836 6.23062 2.55595C6.40654 2.52148 6.59338 2.4914 6.79286 2.46517C6.99235 2.43894 7.20458 2.41628 7.43148 2.39661C7.58974 2.38296 7.86243 2.37079 8.22152 2.36056L9.5284 2.33474L13.0049 2.31348L13.0043 2.31424Z" fill="black"/>
</svg>
