<svg width="26" height="26" viewBox="0 0 26 26" fill="none" xmlns="http://www.w3.org/2000/svg">
<path d="M25.9999 13C25.9999 20.1796 20.1797 26 13 26C5.82032 26 0 20.1796 0 13C0 5.82023 5.82032 0 13 0C20.1797 0 25.9999 5.82023 25.9999 13Z" fill="white"/>
<path d="M13 0C5.82033 0 0 5.82032 0 13C0 18.5075 3.42658 23.2155 8.26246 25.1097C8.14887 24.0812 8.04613 22.4994 8.30754 21.3765C8.5438 20.3618 9.83194 14.9146 9.83194 14.9146C9.83194 14.9146 9.44309 14.1359 9.44309 12.9845C9.44309 11.1769 10.4908 9.82735 11.7954 9.82735C12.9045 9.82735 13.4402 10.6601 13.4402 11.6586C13.4402 12.774 12.7301 14.4416 12.3636 15.987C12.0573 17.2809 13.0125 18.3361 14.2887 18.3361C16.5992 18.3361 18.3753 15.8998 18.3753 12.3831C18.3753 9.27045 16.1387 7.09419 12.9451 7.09419C9.24616 7.09419 7.07502 9.86859 7.07502 12.7358C7.07502 13.8531 7.50542 15.0512 8.04252 15.7026C8.14876 15.8313 8.16432 15.9441 8.13267 16.0754C8.03398 16.486 7.81468 17.369 7.77163 17.5498C7.71494 17.7877 7.58322 17.8382 7.33684 17.7236C5.71323 16.9678 4.69809 14.594 4.69809 12.6873C4.69809 8.58652 7.67764 4.82044 13.2877 4.82044C17.7974 4.82044 21.3019 8.03399 21.3019 12.3286C21.3019 16.8089 18.4772 20.4147 14.5562 20.4147C13.2388 20.4147 12.0004 19.7302 11.5765 18.9219C11.5765 18.9219 10.9247 21.404 10.7666 22.0123C10.4731 23.1414 9.68083 24.5568 9.15088 25.4202C10.3672 25.7969 11.6598 26 13 26C20.1798 26 26 20.1796 26 13C26 5.82032 20.1798 0 13 0Z" fill="black"/>
</svg>
