<svg width="26" height="26" viewBox="0 0 26 26" fill="none" xmlns="http://www.w3.org/2000/svg">
<path d="M12.9993 0.0428467C5.8417 0.0428467 0.0390625 5.84534 0.0390625 13.0029C0.0390625 20.1608 5.8417 25.9628 12.9993 25.9628C20.1577 25.9628 25.9597 20.1608 25.9597 13.0029C25.9597 5.84581 20.1577 0.0434656 12.9991 0.0434656L12.9993 0.0428467ZM18.9427 18.735C18.7107 19.1158 18.2124 19.2364 17.8316 19.0027C14.7886 17.144 10.958 16.7231 6.44667 17.7538C6.01195 17.8528 5.57862 17.5805 5.47956 17.1456C5.38006 16.7107 5.65134 16.2774 6.08715 16.1783C11.0241 15.05 15.2588 15.5361 18.675 17.6238C19.0558 17.8575 19.1765 18.3544 18.9427 18.735ZM20.5291 15.2056C20.2366 15.6815 19.6144 15.8317 19.1394 15.5392C15.6556 13.3974 10.3453 12.7773 6.22473 14.0281C5.69034 14.1895 5.12593 13.8883 4.96373 13.3548C4.80279 12.8205 5.10412 12.2571 5.63757 12.0946C10.3443 10.6665 16.1958 11.3583 20.1963 13.8167C20.6715 14.1091 20.8216 14.7311 20.5291 15.2056ZM20.6652 11.531C16.4882 9.04998 9.5967 8.82187 5.60864 10.0323C4.96823 10.2265 4.29098 9.86497 4.09692 9.22456C3.90284 8.58384 4.26406 7.90707 4.90493 7.71239C9.48295 6.32262 17.0934 6.59114 21.9024 9.44603C22.4796 9.78789 22.6685 10.5318 22.3265 11.1071C21.986 11.6831 21.2401 11.873 20.6659 11.531H20.6652Z" fill="black"/>
</svg>
