<svg width="27" height="26" viewBox="0 0 27 26" fill="none" xmlns="http://www.w3.org/2000/svg">
<path d="M14.4183 22.0828L9.01637 21.984C7.26736 21.9496 5.51399 22.0183 3.79926 21.6618C1.19077 21.1288 1.00597 18.516 0.812604 16.3243C0.546163 13.2431 0.64931 10.1059 1.15212 7.05039C1.43597 5.33593 2.55306 4.3129 4.28057 4.20157C10.1122 3.79756 15.9827 3.84544 21.8014 4.03393C22.4159 4.0512 23.0347 4.14565 23.6407 4.25315C26.6317 4.77746 26.7047 7.73839 26.8986 10.2309C27.092 12.7492 27.0103 15.2804 26.6407 17.7815C26.3442 19.8524 25.7769 21.589 23.3828 21.7566C20.383 21.9759 17.4521 22.1524 14.444 22.0962C14.4441 22.0828 14.4269 22.0828 14.4183 22.0828ZM11.2425 16.84C13.5031 15.5421 15.7205 14.2658 17.968 12.9766C15.7033 11.6787 13.4901 10.4024 11.2425 9.11321V16.84Z" fill="black"/>
</svg>
